<svg width="24" height="24" viewBox="0 0 24 24" fill="none" xmlns="http://www.w3.org/2000/svg">
<path fill-rule="evenodd" clip-rule="evenodd" d="M18.8593 19.9892L18.4693 16.8294C20.6092 15.3294 21.9992 12.9395 21.9992 10.2397C21.9992 5.68984 18.0493 2 13.1695 2C8.98971 2 5.48985 4.70989 4.57989 8.34973C4.4899 8.72972 4.84988 9.0697 5.21987 8.94971C5.93984 8.70972 6.7098 8.58972 7.49977 8.58972C11.3596 8.58972 14.4995 11.5696 14.4995 15.2294C14.4995 16.2694 14.2295 17.3094 13.7295 18.2293C13.5995 18.4693 13.6595 18.7693 13.8995 18.9093L17.3594 20.9692C18.0693 21.3992 18.9593 20.8192 18.8593 19.9892ZM11.8196 18.3893C12.5596 17.5194 12.9995 16.4194 12.9995 15.2294C12.9995 12.3896 10.5396 10.0897 7.49977 10.0897C6.33982 10.0897 5.26986 10.4197 4.3799 10.9996C2.93996 11.9196 2 13.4695 2 15.2294C2 16.9094 2.85996 18.3993 4.19991 19.3293L3.94992 21.2992C3.88992 21.8092 4.4499 22.1792 4.88988 21.9092L7.49977 20.3592C9.25969 20.3592 10.8296 19.5893 11.8196 18.3893Z" fill="white"/>
</svg>
